<svg xmlns="http://www.w3.org/2000/svg" viewBox="0 0 490.667 490.667" style="enable-background:new 0 0 490.667 490.667" xml:space="preserve"><circle style="fill:#ffc107" cx="245.333" cy="245.333" r="160"/><path style="fill:#ffd54f" d="M245.333 64C251.224 64 256 59.224 256 53.333V10.667C256 4.776 251.224 0 245.333 0s-10.667 4.776-10.667 10.667v42.667c.001 5.89 4.776 10.666 10.667 10.666zM245.333 426.667c-5.891 0-10.667 4.776-10.667 10.667V480c0 5.891 4.776 10.667 10.667 10.667S256 485.891 256 480v-42.667c0-5.891-4.776-10.666-10.667-10.666zM480 234.667h-42.667c-5.891 0-10.667 4.776-10.667 10.667s4.776 10.667 10.667 10.667H480c5.891 0 10.667-4.776 10.667-10.667 0-5.892-4.776-10.667-10.667-10.667zM64 245.333c0-5.891-4.776-10.667-10.667-10.667H10.667C4.776 234.667 0 239.442 0 245.333S4.776 256 10.667 256h42.667C59.224 256 64 251.224 64 245.333zM140.096 84.395a10.665 10.665 0 0 0 9.259 5.333 10.515 10.515 0 0 0 5.333-1.429c5.102-2.946 6.849-9.469 3.904-14.571l-21.333-36.949c-2.979-5.082-9.514-6.787-14.596-3.808-5.035 2.951-6.763 9.401-3.878 14.474l21.311 36.95zM350.571 406.272c-2.98-5.082-9.515-6.786-14.597-3.806-5.033 2.952-6.761 9.4-3.878 14.473l21.333 36.949a10.665 10.665 0 0 0 9.259 5.333 10.515 10.515 0 0 0 5.333-1.429c5.102-2.946 6.849-9.469 3.904-14.571l-21.354-36.949zM411.605 160a10.515 10.515 0 0 0 5.333-1.429l36.949-21.333c5.22-2.731 7.238-9.176 4.507-14.396-2.731-5.22-9.176-7.238-14.396-4.507-.266.139-.525.289-.778.45l-36.949 21.333c-5.102 2.946-6.849 9.47-3.904 14.571a10.665 10.665 0 0 0 9.237 5.333V160zM73.728 332.096l-36.949 21.333c-5.102 2.946-6.849 9.469-3.904 14.571a10.665 10.665 0 0 0 9.237 5.333 10.515 10.515 0 0 0 5.333-1.429l36.949-21.333c5.22-2.731 7.238-9.176 4.507-14.396-2.731-5.22-9.176-7.238-14.396-4.507-.266.139-.525.289-.778.45l.001-.022zM36.779 137.237l36.949 21.333a10.514 10.514 0 0 0 5.312 1.429 10.668 10.668 0 0 0 5.333-19.904l-36.949-21.333c-4.972-3.16-11.564-1.692-14.724 3.279s-1.692 11.564 3.279 14.724c.253.161.512.311.778.45l.022.022zM453.888 353.429l-36.949-21.333c-4.972-3.16-11.564-1.692-14.724 3.279s-1.692 11.564 3.279 14.724c.253.161.513.311.778.45l36.949 21.333a10.517 10.517 0 0 0 5.333 1.429c5.891 0 10.666-4.776 10.666-10.667 0-3.811-2.033-7.332-5.333-9.237v.022zM336 88.299a10.517 10.517 0 0 0 5.333 1.429 10.669 10.669 0 0 0 9.259-5.333l21.333-36.949c2.911-5.121 1.119-11.633-4.002-14.544-5.073-2.883-11.521-1.156-14.473 3.878l-21.333 36.949c-2.949 5.095-1.211 11.617 3.883 14.57zM154.667 402.368c-5.102-2.945-11.625-1.198-14.571 3.904l-21.333 36.949c-2.945 5.102-1.198 11.625 3.904 14.571a10.517 10.517 0 0 0 5.333 1.429 10.668 10.668 0 0 0 9.259-5.333l21.333-36.949c2.94-5.105 1.186-11.627-3.919-14.567l-.006-.004z"/><path d="M245.333 405.333c-88.366 0-160-71.634-160-160s71.634-160 160-160 160 71.634 160 160c-.094 88.327-71.673 159.906-160 160zm0-298.666c-76.583 0-138.667 62.083-138.667 138.667S168.75 384 245.333 384 384 321.917 384 245.333c-.094-76.544-62.122-138.572-138.667-138.666zM245.333 64c-5.891 0-10.667-4.776-10.667-10.667V10.667C234.667 4.776 239.442 0 245.333 0S256 4.776 256 10.667v42.667C256 59.224 251.224 64 245.333 64zM245.333 490.667c-5.891 0-10.667-4.776-10.667-10.667v-42.667c0-5.891 4.776-10.667 10.667-10.667S256 431.442 256 437.333V480c0 5.891-4.776 10.667-10.667 10.667zM480 256h-42.667c-5.891 0-10.667-4.776-10.667-10.667s4.776-10.667 10.667-10.667H480c5.891 0 10.667 4.776 10.667 10.667S485.891 256 480 256zM53.333 256H10.667C4.776 256 0 251.224 0 245.333s4.776-10.667 10.667-10.667h42.667c5.891 0 10.667 4.776 10.667 10.667C64 251.224 59.224 256 53.333 256zM149.333 89.728a10.665 10.665 0 0 1-9.237-5.333l-21.333-36.949c-2.731-5.22-.713-11.665 4.507-14.396a10.667 10.667 0 0 1 13.946 3.729l21.333 36.949c2.946 5.102 1.198 11.625-3.904 14.571a10.667 10.667 0 0 1-5.333 1.429h.021zM362.667 459.221a10.665 10.665 0 0 1-9.237-5.333l-21.333-36.949c-3.16-4.972-1.692-11.564 3.279-14.724s11.564-1.692 14.724 3.279c.161.253.311.513.45.778l21.333 36.949c2.946 5.102 1.198 11.625-3.904 14.571a10.667 10.667 0 0 1-5.333 1.429h.021zM411.605 160a10.668 10.668 0 0 1-5.333-19.904l36.949-21.333c4.972-3.16 11.564-1.692 14.724 3.279s1.692 11.564-3.279 14.724c-.253.161-.513.311-.778.45l-36.949 21.333a10.671 10.671 0 0 1-5.334 1.451zM42.112 373.333c-5.891 0-10.666-4.776-10.666-10.667 0-3.811 2.033-7.332 5.333-9.237l36.949-21.333c5.22-2.731 11.665-.713 14.396 4.507a10.667 10.667 0 0 1-3.729 13.946l-36.949 21.333a10.664 10.664 0 0 1-5.334 1.451zM79.061 160c-1.872 0-3.712-.493-5.333-1.429l-36.949-21.333c-4.972-3.16-6.44-9.753-3.279-14.724a10.666 10.666 0 0 1 13.946-3.729l36.949 21.333c5.09 2.966 6.812 9.497 3.846 14.587a10.669 10.669 0 0 1-9.18 5.295zM448.555 373.333c-1.872 0-3.712-.493-5.333-1.429l-36.949-21.333c-5.22-2.731-7.238-9.176-4.507-14.396s9.176-7.238 14.396-4.507c.266.139.525.289.778.45l36.949 21.333c5.102 2.946 6.849 9.469 3.904 14.571a10.665 10.665 0 0 1-9.237 5.333v-.022zM341.333 89.728c-5.891 0-10.667-4.776-10.666-10.667 0-1.872.493-3.712 1.429-5.333l21.333-36.949c3.16-4.972 9.753-6.44 14.724-3.279a10.667 10.667 0 0 1 3.729 13.946l-21.333 36.949a10.668 10.668 0 0 1-9.216 5.333zM128 459.221c-5.891 0-10.667-4.776-10.666-10.667 0-1.872.493-3.712 1.429-5.333l21.333-36.949c2.731-5.22 9.176-7.238 14.396-4.507s7.238 9.176 4.507 14.396c-.139.266-.289.525-.45.778l-21.333 36.949a10.665 10.665 0 0 1-9.216 5.333z"/></svg>